<mxfile host="app.diagrams.net" modified="2024-07-11T16:46:20.428Z" agent="Mozilla/5.0 (X11; Ubuntu; Linux x86_64; rv:127.0) Gecko/20100101 Firefox/127.0" etag="kwiGECXntMHzQee2fsYx" version="24.6.4" type="device">
  <diagram name="Page-1" id="-LIyzxm9dmhITKHVKHmq">
    <mxGraphModel dx="2004" dy="1315" grid="1" gridSize="10" guides="1" tooltips="1" connect="1" arrows="1" fold="1" page="1" pageScale="1" pageWidth="850" pageHeight="1100" math="0" shadow="0">
      <root>
        <mxCell id="0" />
        <mxCell id="1" parent="0" />
        <mxCell id="nOzcaOw2asyWHwcXRdIb-13" value="" style="group" vertex="1" connectable="0" parent="1">
          <mxGeometry x="90" y="780" width="670" height="120" as="geometry" />
        </mxCell>
        <mxCell id="nOzcaOw2asyWHwcXRdIb-1" value="T-UE" style="rounded=1;whiteSpace=wrap;html=1;" vertex="1" parent="nOzcaOw2asyWHwcXRdIb-13">
          <mxGeometry x="530" y="25" width="140" height="70" as="geometry" />
        </mxCell>
        <mxCell id="nOzcaOw2asyWHwcXRdIb-11" style="edgeStyle=orthogonalEdgeStyle;rounded=0;orthogonalLoop=1;jettySize=auto;html=1;" edge="1" parent="nOzcaOw2asyWHwcXRdIb-13" source="nOzcaOw2asyWHwcXRdIb-2" target="nOzcaOw2asyWHwcXRdIb-3">
          <mxGeometry relative="1" as="geometry" />
        </mxCell>
        <mxCell id="nOzcaOw2asyWHwcXRdIb-12" style="edgeStyle=orthogonalEdgeStyle;rounded=0;orthogonalLoop=1;jettySize=auto;html=1;" edge="1" parent="nOzcaOw2asyWHwcXRdIb-13" source="nOzcaOw2asyWHwcXRdIb-2" target="nOzcaOw2asyWHwcXRdIb-1">
          <mxGeometry relative="1" as="geometry" />
        </mxCell>
        <mxCell id="nOzcaOw2asyWHwcXRdIb-2" value="IP interface (ZMQ, RU etc.)" style="rounded=1;whiteSpace=wrap;html=1;" vertex="1" parent="nOzcaOw2asyWHwcXRdIb-13">
          <mxGeometry x="320" y="30" width="120" height="60" as="geometry" />
        </mxCell>
        <mxCell id="nOzcaOw2asyWHwcXRdIb-3" value="srsRAN RU" style="rounded=1;whiteSpace=wrap;html=1;" vertex="1" parent="nOzcaOw2asyWHwcXRdIb-13">
          <mxGeometry x="160" y="30" width="120" height="60" as="geometry" />
        </mxCell>
        <mxCell id="nOzcaOw2asyWHwcXRdIb-7" style="edgeStyle=orthogonalEdgeStyle;rounded=0;orthogonalLoop=1;jettySize=auto;html=1;entryX=0;entryY=0.5;entryDx=0;entryDy=0;" edge="1" parent="nOzcaOw2asyWHwcXRdIb-13" source="nOzcaOw2asyWHwcXRdIb-5" target="nOzcaOw2asyWHwcXRdIb-3">
          <mxGeometry relative="1" as="geometry" />
        </mxCell>
        <mxCell id="nOzcaOw2asyWHwcXRdIb-5" value="&lt;div&gt;srsRAN CU&lt;/div&gt;" style="rounded=1;whiteSpace=wrap;html=1;" vertex="1" parent="nOzcaOw2asyWHwcXRdIb-13">
          <mxGeometry y="60" width="120" height="60" as="geometry" />
        </mxCell>
        <mxCell id="nOzcaOw2asyWHwcXRdIb-8" style="edgeStyle=orthogonalEdgeStyle;rounded=0;orthogonalLoop=1;jettySize=auto;html=1;" edge="1" parent="nOzcaOw2asyWHwcXRdIb-13" source="nOzcaOw2asyWHwcXRdIb-6">
          <mxGeometry relative="1" as="geometry">
            <mxPoint x="150" y="60" as="targetPoint" />
            <Array as="points">
              <mxPoint x="140" y="30" />
              <mxPoint x="140" y="60" />
              <mxPoint x="160" y="60" />
            </Array>
          </mxGeometry>
        </mxCell>
        <mxCell id="nOzcaOw2asyWHwcXRdIb-6" value="&lt;div&gt;srsRAN DU&lt;/div&gt;" style="rounded=1;whiteSpace=wrap;html=1;" vertex="1" parent="nOzcaOw2asyWHwcXRdIb-13">
          <mxGeometry width="120" height="60" as="geometry" />
        </mxCell>
        <mxCell id="nOzcaOw2asyWHwcXRdIb-19" style="edgeStyle=orthogonalEdgeStyle;rounded=0;orthogonalLoop=1;jettySize=auto;html=1;entryX=0.5;entryY=0;entryDx=0;entryDy=0;" edge="1" parent="1" source="nOzcaOw2asyWHwcXRdIb-14" target="nOzcaOw2asyWHwcXRdIb-17">
          <mxGeometry relative="1" as="geometry" />
        </mxCell>
        <mxCell id="nOzcaOw2asyWHwcXRdIb-14" value="" style="verticalLabelPosition=bottom;html=1;verticalAlign=top;align=center;strokeColor=none;fillColor=#00BEF2;shape=mxgraph.azure.laptop;pointerEvents=1;" vertex="1" parent="1">
          <mxGeometry x="390" y="300" width="70" height="50" as="geometry" />
        </mxCell>
        <mxCell id="nOzcaOw2asyWHwcXRdIb-15" value="Qt python GUI" style="text;html=1;align=center;verticalAlign=middle;resizable=0;points=[];autosize=1;strokeColor=none;fillColor=none;" vertex="1" parent="1">
          <mxGeometry x="375" y="260" width="100" height="30" as="geometry" />
        </mxCell>
        <mxCell id="nOzcaOw2asyWHwcXRdIb-16" value="Sqlite3 results Database" style="shape=cylinder3;whiteSpace=wrap;html=1;boundedLbl=1;backgroundOutline=1;size=15;" vertex="1" parent="1">
          <mxGeometry x="620" y="320" width="80" height="70" as="geometry" />
        </mxCell>
        <mxCell id="nOzcaOw2asyWHwcXRdIb-31" style="edgeStyle=orthogonalEdgeStyle;rounded=0;orthogonalLoop=1;jettySize=auto;html=1;entryX=0;entryY=0.5;entryDx=0;entryDy=0;" edge="1" parent="1" source="nOzcaOw2asyWHwcXRdIb-17" target="nOzcaOw2asyWHwcXRdIb-30">
          <mxGeometry relative="1" as="geometry">
            <Array as="points">
              <mxPoint x="470" y="530" />
              <mxPoint x="570" y="530" />
              <mxPoint x="570" y="640" />
            </Array>
          </mxGeometry>
        </mxCell>
        <mxCell id="nOzcaOw2asyWHwcXRdIb-39" style="edgeStyle=orthogonalEdgeStyle;rounded=0;orthogonalLoop=1;jettySize=auto;html=1;entryX=0.5;entryY=0;entryDx=0;entryDy=0;" edge="1" parent="1" source="nOzcaOw2asyWHwcXRdIb-17" target="nOzcaOw2asyWHwcXRdIb-35">
          <mxGeometry relative="1" as="geometry" />
        </mxCell>
        <mxCell id="nOzcaOw2asyWHwcXRdIb-17" value="Python Controller" style="rounded=1;whiteSpace=wrap;html=1;" vertex="1" parent="1">
          <mxGeometry x="345" y="450" width="160" height="70" as="geometry" />
        </mxCell>
        <mxCell id="nOzcaOw2asyWHwcXRdIb-20" value="&lt;i&gt;Initiate test&lt;/i&gt;" style="text;html=1;align=center;verticalAlign=middle;resizable=0;points=[];autosize=1;strokeColor=none;fillColor=none;" vertex="1" parent="1">
          <mxGeometry x="420" y="378" width="80" height="30" as="geometry" />
        </mxCell>
        <mxCell id="nOzcaOw2asyWHwcXRdIb-21" style="edgeStyle=orthogonalEdgeStyle;rounded=0;orthogonalLoop=1;jettySize=auto;html=1;entryX=0.5;entryY=1;entryDx=0;entryDy=0;entryPerimeter=0;" edge="1" parent="1" source="nOzcaOw2asyWHwcXRdIb-17" target="nOzcaOw2asyWHwcXRdIb-16">
          <mxGeometry relative="1" as="geometry" />
        </mxCell>
        <mxCell id="nOzcaOw2asyWHwcXRdIb-22" value="Write experiment results" style="text;html=1;align=center;verticalAlign=middle;resizable=0;points=[];autosize=1;strokeColor=none;fillColor=none;" vertex="1" parent="1">
          <mxGeometry x="505" y="450" width="150" height="30" as="geometry" />
        </mxCell>
        <mxCell id="nOzcaOw2asyWHwcXRdIb-24" style="edgeStyle=orthogonalEdgeStyle;rounded=0;orthogonalLoop=1;jettySize=auto;html=1;entryX=1.057;entryY=0.46;entryDx=0;entryDy=0;entryPerimeter=0;" edge="1" parent="1" source="nOzcaOw2asyWHwcXRdIb-16" target="nOzcaOw2asyWHwcXRdIb-14">
          <mxGeometry relative="1" as="geometry" />
        </mxCell>
        <mxCell id="nOzcaOw2asyWHwcXRdIb-25" value="Experiment visualizations" style="text;html=1;align=center;verticalAlign=middle;resizable=0;points=[];autosize=1;strokeColor=none;fillColor=none;" vertex="1" parent="1">
          <mxGeometry x="475" y="290" width="160" height="30" as="geometry" />
        </mxCell>
        <mxCell id="nOzcaOw2asyWHwcXRdIb-27" style="edgeStyle=orthogonalEdgeStyle;rounded=0;orthogonalLoop=1;jettySize=auto;html=1;entryX=0.25;entryY=1;entryDx=0;entryDy=0;" edge="1" parent="1" source="nOzcaOw2asyWHwcXRdIb-26" target="nOzcaOw2asyWHwcXRdIb-17">
          <mxGeometry relative="1" as="geometry" />
        </mxCell>
        <mxCell id="nOzcaOw2asyWHwcXRdIb-29" style="edgeStyle=orthogonalEdgeStyle;rounded=0;orthogonalLoop=1;jettySize=auto;html=1;entryX=0.5;entryY=0;entryDx=0;entryDy=0;" edge="1" parent="1" source="nOzcaOw2asyWHwcXRdIb-26" target="nOzcaOw2asyWHwcXRdIb-2">
          <mxGeometry relative="1" as="geometry" />
        </mxCell>
        <mxCell id="nOzcaOw2asyWHwcXRdIb-26" value="Scapy PCAP monitor" style="rounded=1;whiteSpace=wrap;html=1;" vertex="1" parent="1">
          <mxGeometry x="410" y="700" width="120" height="60" as="geometry" />
        </mxCell>
        <mxCell id="nOzcaOw2asyWHwcXRdIb-28" value="&lt;div&gt;Processed PCAP data&lt;/div&gt;&lt;div&gt;(JSON, graphs, etc.)&lt;br&gt;&lt;/div&gt;" style="text;html=1;align=center;verticalAlign=middle;resizable=0;points=[];autosize=1;strokeColor=none;fillColor=none;" vertex="1" parent="1">
          <mxGeometry x="320" y="610" width="140" height="40" as="geometry" />
        </mxCell>
        <mxCell id="nOzcaOw2asyWHwcXRdIb-33" style="edgeStyle=orthogonalEdgeStyle;rounded=0;orthogonalLoop=1;jettySize=auto;html=1;" edge="1" parent="1" source="nOzcaOw2asyWHwcXRdIb-30">
          <mxGeometry relative="1" as="geometry">
            <mxPoint x="695" y="800" as="targetPoint" />
          </mxGeometry>
        </mxCell>
        <mxCell id="nOzcaOw2asyWHwcXRdIb-30" value="Ue controller interface" style="rounded=1;whiteSpace=wrap;html=1;" vertex="1" parent="1">
          <mxGeometry x="635" y="610" width="120" height="60" as="geometry" />
        </mxCell>
        <mxCell id="nOzcaOw2asyWHwcXRdIb-32" value="Start singal" style="text;html=1;align=center;verticalAlign=middle;resizable=0;points=[];autosize=1;strokeColor=none;fillColor=none;" vertex="1" parent="1">
          <mxGeometry x="570" y="550" width="80" height="30" as="geometry" />
        </mxCell>
        <mxCell id="nOzcaOw2asyWHwcXRdIb-34" value="Runs with CLI args" style="text;html=1;align=center;verticalAlign=middle;resizable=0;points=[];autosize=1;strokeColor=none;fillColor=none;" vertex="1" parent="1">
          <mxGeometry x="690" y="700" width="120" height="30" as="geometry" />
        </mxCell>
        <mxCell id="nOzcaOw2asyWHwcXRdIb-35" value="gNB server" style="rounded=1;whiteSpace=wrap;html=1;" vertex="1" parent="1">
          <mxGeometry x="90" y="600" width="120" height="60" as="geometry" />
        </mxCell>
        <mxCell id="nOzcaOw2asyWHwcXRdIb-36" style="edgeStyle=orthogonalEdgeStyle;rounded=0;orthogonalLoop=1;jettySize=auto;html=1;" edge="1" parent="1" source="nOzcaOw2asyWHwcXRdIb-6" target="nOzcaOw2asyWHwcXRdIb-35">
          <mxGeometry relative="1" as="geometry" />
        </mxCell>
        <mxCell id="nOzcaOw2asyWHwcXRdIb-37" value="Logs, Data, Crash reports etc." style="text;html=1;align=center;verticalAlign=middle;resizable=0;points=[];autosize=1;strokeColor=none;fillColor=none;" vertex="1" parent="1">
          <mxGeometry x="150" y="708" width="180" height="30" as="geometry" />
        </mxCell>
        <mxCell id="nOzcaOw2asyWHwcXRdIb-40" value="Restart gNB commands / Core network control" style="text;html=1;align=center;verticalAlign=middle;resizable=0;points=[];autosize=1;strokeColor=none;fillColor=none;" vertex="1" parent="1">
          <mxGeometry x="50" y="440" width="270" height="30" as="geometry" />
        </mxCell>
      </root>
    </mxGraphModel>
  </diagram>
</mxfile>
